<svg width="100" height="100" viewBox="0 0 100 100" fill="none" xmlns="http://www.w3.org/2000/svg">
<g clip-path="url(#clip0_44_2)">
<rect x="23" y="6" width="51" height="84" fill="#EBEBEB"/>
<path d="M100 100H0V0H100V100ZM50.9766 21.4541C50.8542 21.5293 50.6697 21.638 50.4355 21.7861C50.3178 21.8597 50.1863 21.9418 50.042 22.0322C49.9701 22.078 49.8951 22.126 49.8164 22.1758C49.739 22.2269 49.6619 22.2877 49.5791 22.3467C49.2517 22.5863 48.8726 22.8665 48.4521 23.1914C48.2536 23.3621 48.0408 23.5404 47.8232 23.7334C47.7134 23.8294 47.6014 23.9279 47.4863 24.0283C47.3724 24.13 47.2506 24.2303 47.1406 24.3447C46.9141 24.5678 46.6776 24.8018 46.4365 25.0488C46.3159 25.1725 46.1875 25.2953 46.0664 25.4268C45.9488 25.5609 45.829 25.6975 45.707 25.8359C44.7067 26.9336 43.7172 28.2986 42.7715 29.876C41.8286 31.4547 40.9616 33.2653 40.2471 35.2549C39.5318 37.244 38.9686 39.4106 38.5977 41.6855C38.5564 41.9706 38.5145 42.2568 38.4727 42.5439C38.4513 42.6877 38.4309 42.8321 38.4102 42.9766L38.3789 43.1934L38.3721 43.248L38.3643 43.3262L38.3525 43.4297C38.3375 43.5683 38.3226 43.7077 38.3066 43.8467L38.2842 44.0557C38.2764 44.1244 38.2689 44.1953 38.2627 44.2734C38.2378 44.5767 38.2131 44.8812 38.1885 45.1865C38.1078 46.3753 38.0819 47.5721 38.0967 48.7676C38.1253 51.1592 38.31 53.541 38.5068 55.8721C38.7076 58.2036 38.9168 60.4894 39.0107 62.7041C39.1056 64.9184 39.0874 67.0618 38.8672 69.0977C38.8352 69.3514 38.8039 69.604 38.7725 69.8555C38.7403 70.1067 38.6987 70.3538 38.6631 70.6025C38.6283 70.8515 38.5748 71.0935 38.5322 71.3379L38.5 71.5205L38.4922 71.5664L38.4883 71.5889C38.4862 71.5981 38.492 71.5794 38.4961 71.5645L38.4736 71.6621C38.4447 71.7916 38.4153 71.9213 38.3857 72.0498C38.3272 72.3078 38.2684 72.5646 38.21 72.8193C38.1487 73.0447 38.0885 73.2691 38.0273 73.4912C37.9203 73.9332 37.7586 74.3895 37.6172 74.8379C37.5807 74.9497 37.5479 75.0624 37.5088 75.1719C37.4672 75.2815 37.4252 75.3907 37.3848 75.499C37.3032 75.7182 37.2232 75.935 37.1426 76.1504C36.9763 76.5789 36.7856 76.9913 36.6172 77.4062C36.4234 77.8121 36.2331 78.2102 36.0459 78.6006C35.8415 78.9853 35.6414 79.3624 35.4453 79.7314C34.628 81.1987 33.743 82.4862 32.8867 83.5801C32.6825 83.8635 32.462 84.1165 32.2549 84.3682C32.0448 84.6184 31.8493 84.8679 31.6436 85.0898C31.4412 85.3175 31.2471 85.535 31.0605 85.7432C30.871 85.9474 30.684 86.1379 30.5088 86.3223C30.3312 86.5034 30.1686 86.6845 30.0039 86.8389C29.8398 86.9968 29.6863 87.1456 29.5439 87.2832C29.4005 87.4221 29.267 87.5511 29.1455 87.6689C29.0198 87.7815 28.9049 87.8847 28.8027 87.9766C28.3976 88.3452 28.1796 88.5446 28.1738 88.5498C28.1771 88.5484 28.2447 88.5185 28.3721 88.4619C28.5031 88.403 28.6992 88.3179 28.9521 88.2002C29.079 88.1418 29.2214 88.0766 29.3779 88.0049C29.5294 87.9245 29.6942 87.8355 29.873 87.7412C30.0525 87.6447 30.2453 87.5424 30.4512 87.4326C30.6568 87.321 30.8631 87.1856 31.0889 87.0508C31.3115 86.9119 31.5535 86.774 31.7939 86.6113C32.0328 86.4457 32.2841 86.2726 32.5459 86.0918C32.8122 85.9155 33.0707 85.7087 33.3418 85.4961C33.6121 85.2833 33.9007 85.069 34.1758 84.8232C34.4555 84.5812 34.7508 84.3351 35.0371 84.0654C35.3217 83.7902 35.6143 83.5075 35.915 83.2178C36.2033 82.9167 36.4929 82.5999 36.792 82.2764C37.0812 81.9444 37.3671 81.5953 37.666 81.2422C37.9553 80.8825 38.2307 80.4986 38.5225 80.1143C38.7999 79.7194 39.0693 79.3078 39.3486 78.8906C39.4782 78.6753 39.6079 78.4582 39.7393 78.2393C39.8047 78.1293 39.8707 78.0196 39.9365 77.9082C40.0029 77.7977 40.0691 77.6861 40.1279 77.5703C40.2492 77.3404 40.3723 77.1083 40.4961 76.875C40.557 76.7574 40.6186 76.6399 40.6797 76.5215C40.7401 76.4028 40.7936 76.2794 40.8506 76.1582C41.0765 75.6688 41.3091 75.1836 41.5107 74.6387C41.6143 74.3713 41.7191 74.1032 41.8242 73.833C41.907 73.5849 41.99 73.3352 42.0742 73.085C42.116 72.9596 42.1592 72.8331 42.2012 72.707L42.2324 72.6123L42.2744 72.4619L42.334 72.2559C42.4082 71.979 42.4939 71.7015 42.5596 71.4199C42.6267 71.1389 42.6995 70.8568 42.7627 70.5723C42.8203 70.2869 42.8794 69.9993 42.9385 69.7119C43.372 67.4014 43.5338 64.9922 43.5166 62.5977C43.5018 60.2006 43.322 57.8143 43.124 55.4785C42.9229 53.1422 42.7027 50.8522 42.5928 48.6328C42.5811 48.3561 42.5686 48.0794 42.5566 47.8037C42.5485 47.5294 42.5397 47.2556 42.5312 46.9824C42.5265 46.7102 42.5219 46.4385 42.5176 46.168C42.5179 45.8983 42.5188 45.6294 42.5195 45.3613C42.5243 45.1025 42.5279 44.8441 42.5322 44.5869C42.5325 44.5248 42.5356 44.4558 42.5391 44.3848L42.5488 44.1748C42.5552 44.035 42.5611 43.8952 42.5674 43.7559L42.5723 43.6514L42.5732 43.625C42.5732 43.62 42.5757 43.5858 42.5723 43.626L42.5762 43.5762L42.5908 43.3789C42.6 43.2473 42.6091 43.1156 42.6182 42.9844C42.6363 42.7215 42.6543 42.4592 42.6719 42.1982C42.8453 40.1143 43.156 38.111 43.584 36.2393C44.0113 34.3669 44.5577 32.6275 45.1699 31.0566C45.2449 30.8591 45.3197 30.6639 45.3936 30.4707C45.4768 30.2819 45.5593 30.0949 45.6406 29.9102C45.7228 29.7253 45.8035 29.542 45.8838 29.3613C45.9229 29.2703 45.9631 29.1798 46.002 29.0898C46.0437 29.0013 46.0878 28.9149 46.1299 28.8281C46.3021 28.4812 46.4696 28.143 46.6328 27.8145C46.7126 27.648 46.8094 27.4964 46.8955 27.3398C46.9823 27.1837 47.0675 27.0295 47.1514 26.8779C47.2363 26.7257 47.3194 26.575 47.4014 26.4277C47.4861 26.2824 47.5781 26.1457 47.6641 26.0078C47.8395 25.7343 48.0058 25.467 48.165 25.208C48.2421 25.0761 48.3323 24.9584 48.415 24.8389C48.499 24.7203 48.5819 24.6047 48.6621 24.4912C48.8242 24.2647 48.9742 24.0429 49.1201 23.834C49.2725 23.6346 49.4214 23.449 49.5605 23.2715C49.6993 23.0921 49.8291 22.924 49.9502 22.7676C50.012 22.6895 50.0684 22.6113 50.1289 22.541C50.1901 22.4713 50.2493 22.4047 50.3057 22.3408C50.4178 22.212 50.5194 22.095 50.6104 21.9902C50.7929 21.7816 50.9287 21.6169 51.0225 21.5078C51.1124 21.4009 51.1597 21.3437 51.1621 21.3408C51.1577 21.3435 51.0944 21.382 50.9766 21.4541ZM60.4141 16.0059C60.2917 16.0811 60.1073 16.1897 59.873 16.3379C59.7553 16.4114 59.6238 16.4936 59.4795 16.584C59.4076 16.6298 59.3326 16.6778 59.2539 16.7275C59.1765 16.7786 59.0994 16.8395 59.0166 16.8984C58.6892 17.1381 58.3101 17.4182 57.8896 17.7432C57.6911 17.9139 57.4783 18.0921 57.2607 18.2852C57.1508 18.3812 57.0381 18.4795 56.9229 18.5801C56.809 18.6818 56.688 18.7821 56.5781 18.8965C56.3516 19.1196 56.1141 19.3526 55.873 19.5996C55.7525 19.7233 55.6249 19.8461 55.5039 19.9775C55.3862 20.1118 55.2666 20.2491 55.1445 20.3877C54.1442 21.4853 53.1547 22.8504 52.209 24.4277C51.2662 26.0064 50.3991 27.817 49.6846 29.8066C48.9694 31.7957 48.406 33.9624 48.0352 36.2373C47.9939 36.5223 47.952 36.8086 47.9102 37.0957C47.8888 37.2393 47.8683 37.3831 47.8477 37.5273L47.8164 37.7441L47.8096 37.7988L47.8008 37.8779L47.79 37.9814C47.775 38.1201 47.7592 38.2594 47.7432 38.3984L47.7207 38.6074C47.7129 38.6759 47.7054 38.7463 47.6992 38.8242C47.6743 39.1277 47.6506 39.4328 47.626 39.7383C47.5453 40.927 47.5194 42.1238 47.5342 43.3193C47.5628 45.7108 47.7465 48.0919 47.9434 50.4229C48.1441 52.7546 48.3543 55.041 48.4482 57.2559C48.5431 59.4702 48.5249 61.6135 48.3047 63.6494C48.2727 63.9032 48.2414 64.1558 48.21 64.4072C48.1778 64.6585 48.1362 64.9056 48.1006 65.1543C48.0658 65.4031 48.0123 65.6444 47.9697 65.8887L47.9375 66.0723L47.9287 66.1172L47.9258 66.1406C47.9272 66.1359 47.93 66.1247 47.9326 66.1152L47.9111 66.2129C47.8822 66.3424 47.8518 66.4721 47.8223 66.6006C47.7637 66.8586 47.7059 67.1153 47.6475 67.3701C47.5862 67.5956 47.525 67.8198 47.4639 68.042C47.3569 68.4841 47.1951 68.9403 47.0537 69.3887C47.0172 69.5007 46.9845 69.614 46.9453 69.7236C46.9037 69.8333 46.8627 69.9424 46.8223 70.0508C46.7406 70.27 46.6607 70.4867 46.5801 70.7021C46.4138 71.1307 46.2231 71.543 46.0547 71.958C45.8609 72.3638 45.6706 72.7619 45.4834 73.1523C45.2789 73.5372 45.078 73.9141 44.8818 74.2832C44.0645 75.7504 43.1805 77.037 42.3242 78.1309C42.1199 78.4145 41.8986 78.6681 41.6914 78.9199C41.4816 79.1699 41.2866 79.4189 41.0811 79.6406C40.8786 79.8684 40.6846 80.0867 40.498 80.2949C40.3085 80.4991 40.1205 80.6887 39.9453 80.873C39.7676 81.0543 39.6052 81.2362 39.4404 81.3906C39.2764 81.5484 39.1237 81.6974 38.9814 81.835C38.8381 81.9738 38.7044 82.102 38.583 82.2197C38.4572 82.3323 38.3425 82.4364 38.2402 82.5283C37.8361 82.8961 37.6181 83.0953 37.6113 83.1016C37.6165 83.0993 37.684 83.0695 37.8096 83.0137C37.9406 82.9548 38.1366 82.8697 38.3896 82.752C38.5164 82.6936 38.658 82.6273 38.8145 82.5557C38.966 82.4753 39.1316 82.3872 39.3105 82.293C39.49 82.1965 39.6828 82.0932 39.8887 81.9834C40.0942 81.8718 40.3007 81.7363 40.5264 81.6016C40.749 81.4627 40.991 81.3248 41.2314 81.1621C41.4703 80.9965 41.7217 80.8233 41.9834 80.6426C42.2495 80.4663 42.5083 80.2603 42.7793 80.0479C43.0496 79.8351 43.3382 79.6208 43.6133 79.375C43.8931 79.1329 44.1882 78.886 44.4746 78.6162C44.7592 78.3411 45.0518 78.0591 45.3525 77.7695C45.6408 77.4684 45.9294 77.1507 46.2285 76.8271C46.5177 76.4951 46.8046 76.147 47.1035 75.7939C47.3928 75.4342 47.6682 75.0504 47.96 74.666C48.2373 74.2713 48.5059 73.8594 48.7852 73.4424C48.9148 73.2271 49.0454 73.0099 49.1768 72.791C49.2422 72.681 49.3072 72.5705 49.373 72.459C49.4394 72.3485 49.5066 72.2369 49.5654 72.1211C49.6865 71.8915 49.809 71.6598 49.9326 71.4268C49.9936 71.309 50.056 71.1907 50.1172 71.0723C50.1775 70.9537 50.2312 70.831 50.2881 70.71C50.514 70.2206 50.7466 69.7353 50.9482 69.1904C51.0517 68.9231 51.1566 68.6549 51.2617 68.3848C51.3446 68.1364 51.4275 67.8862 51.5117 67.6357C51.5535 67.5105 51.5967 67.3848 51.6387 67.2588L51.6699 67.1641L51.7119 67.0137L51.7715 66.8076C51.8457 66.5308 51.9314 66.2532 51.9971 65.9717C52.0642 65.6907 52.136 65.4085 52.1992 65.124C52.2569 64.8387 52.316 64.551 52.375 64.2637C52.8086 61.9531 52.9703 59.544 52.9531 57.1494C52.9383 54.7522 52.7585 52.3652 52.5605 50.0293C52.3594 47.6932 52.1392 45.4038 52.0293 43.1846C52.0176 42.9078 52.0051 42.6312 51.9932 42.3555C51.985 42.0811 51.9772 41.8073 51.9688 41.5342C51.964 41.2621 51.9584 40.9902 51.9541 40.7197C51.9544 40.4502 51.9563 40.1811 51.957 39.9131C51.9618 39.6543 51.9654 39.3958 51.9697 39.1387C51.97 39.0766 51.9731 39.0075 51.9766 38.9365L51.9863 38.7266C51.9927 38.5868 51.9986 38.4469 52.0049 38.3076L52.0098 38.2031L52.0107 38.1768C52.0101 38.1792 52.0119 38.1485 52.0107 38.1611L52.0127 38.1279L52.0273 37.9307C52.0365 37.7989 52.0456 37.6665 52.0547 37.5352C52.0728 37.2725 52.0908 37.0108 52.1084 36.75C52.2818 34.6661 52.5935 32.6627 53.0215 30.791C53.4488 28.9187 53.9953 27.1793 54.6074 25.6084C54.6824 25.4108 54.7572 25.2148 54.8311 25.0215C54.9143 24.8327 54.9958 24.6456 55.0771 24.4609C55.1594 24.276 55.241 24.0928 55.3213 23.9121C55.3603 23.8212 55.3997 23.7305 55.4385 23.6406C55.4801 23.5522 55.5244 23.4665 55.5664 23.3799C55.7386 23.0329 55.9061 22.6947 56.0693 22.3662C56.1491 22.1997 56.2469 22.0481 56.333 21.8916C56.4198 21.7353 56.5049 21.5804 56.5889 21.4287C56.6737 21.2766 56.757 21.1266 56.8389 20.9795C56.9236 20.8342 57.0156 20.6975 57.1016 20.5596C57.277 20.286 57.4422 20.0178 57.6016 19.7588C57.6786 19.627 57.7689 19.5101 57.8516 19.3906C57.9357 19.2719 58.0183 19.1556 58.0986 19.042C58.2607 18.8155 58.4108 18.5936 58.5566 18.3848C58.709 18.1854 58.859 18.0007 58.998 17.8232C59.1368 17.6438 59.2666 17.4757 59.3877 17.3193C59.4495 17.2412 59.5059 17.163 59.5664 17.0928C59.6274 17.0232 59.686 16.9564 59.7422 16.8926C59.8544 16.7637 59.9558 16.6459 60.0469 16.541C60.2295 16.3322 60.3662 16.1677 60.46 16.0586C60.5497 15.9519 60.5972 15.8954 60.5996 15.8926C60.5966 15.8944 60.5333 15.9329 60.4141 16.0059ZM69.1865 10.9404C69.0642 11.0156 68.8797 11.1253 68.6455 11.2734C68.5278 11.3469 68.3962 11.4292 68.252 11.5195C68.1801 11.5652 68.105 11.6124 68.0264 11.6621C67.9489 11.7132 67.8719 11.774 67.7891 11.833C67.4617 12.0727 67.0826 12.3528 66.6621 12.6777C66.4636 12.8484 66.2508 13.0267 66.0332 13.2197C65.9233 13.3158 65.8115 13.4151 65.6963 13.5156C65.5824 13.6173 65.4605 13.7167 65.3506 13.8311C65.1241 14.0541 64.8876 14.2882 64.6465 14.5352C64.5259 14.6589 64.3974 14.7816 64.2764 14.9131C64.1588 15.0472 64.039 15.1838 63.917 15.3223C62.9167 16.4199 61.9272 17.785 60.9814 19.3623C60.0386 20.9411 59.1716 22.7515 58.457 24.7412C57.7418 26.7303 57.1785 28.897 56.8076 31.1719C56.7664 31.4569 56.7244 31.7431 56.6826 32.0303C56.6613 32.174 56.6408 32.3185 56.6201 32.4629L56.5889 32.6797L56.582 32.7344L56.5742 32.8125L56.5625 32.917C56.5474 33.0555 56.5326 33.1942 56.5166 33.333L56.4941 33.542C56.4864 33.6107 56.4789 33.6817 56.4727 33.7598C56.4478 34.0631 56.4231 34.3675 56.3984 34.6729C56.3178 35.8615 56.2919 37.0584 56.3066 38.2539C56.3352 40.6455 56.52 43.0273 56.7168 45.3584C56.9175 47.6901 57.1268 49.9766 57.2207 52.1914C57.3156 54.4055 57.2973 56.5483 57.0771 58.584C57.0451 58.8377 57.0138 59.0904 56.9824 59.3418C56.9502 59.593 56.9086 59.8402 56.873 60.0889C56.8382 60.3378 56.7848 60.5798 56.7422 60.8242L56.71 61.0078L56.6982 61.0752C56.6941 61.0937 56.7197 60.9997 56.7061 61.0508L56.6836 61.1484C56.6546 61.278 56.6252 61.4076 56.5957 61.5361C56.5372 61.7942 56.4784 62.0508 56.4199 62.3057C56.3587 62.5311 56.2985 62.7553 56.2373 62.9775C56.1303 63.4196 55.9685 63.8758 55.8271 64.3242C55.7907 64.436 55.7578 64.5487 55.7188 64.6582C55.6771 64.768 55.6352 64.8778 55.5947 64.9863C55.5132 65.2054 55.4331 65.4215 55.3525 65.6367C55.1862 66.0654 54.9956 66.4785 54.8271 66.8936C54.6335 67.2992 54.443 67.6966 54.2559 68.0869C54.0514 68.4719 53.8515 68.8496 53.6553 69.2188C52.8379 70.6859 51.9529 71.9725 51.0967 73.0664C50.8925 73.3499 50.672 73.6028 50.4648 73.8545C50.2548 74.1047 50.0593 74.3542 49.8535 74.5762C49.6512 74.8038 49.457 75.0213 49.2705 75.2295C49.081 75.4336 48.894 75.6243 48.7188 75.8086C48.5412 75.9897 48.3786 76.1708 48.2139 76.3252C48.0498 76.4831 47.8962 76.632 47.7539 76.7695C47.6104 76.9085 47.477 77.0374 47.3555 77.1553C47.2297 77.2678 47.1149 77.371 47.0127 77.4629C46.6094 77.8299 46.3914 78.0292 46.3838 78.0361C46.3878 78.0343 46.4554 78.0045 46.582 77.9482C46.713 77.8894 46.9091 77.8042 47.1621 77.6865C47.2889 77.6281 47.4314 77.5629 47.5879 77.4912C47.7393 77.4109 47.9042 77.3227 48.083 77.2285C48.2625 77.132 48.4552 77.0288 48.6611 76.9189C48.8668 76.8073 49.0731 76.672 49.2988 76.5371C49.5215 76.3982 49.7634 76.2603 50.0039 76.0977C50.2428 75.932 50.4941 75.7589 50.7559 75.5781C51.022 75.4019 51.2808 75.1959 51.5518 74.9834C51.8221 74.7706 52.1106 74.5554 52.3857 74.3096C52.6655 74.0675 52.9607 73.8215 53.2471 73.5518C53.5317 73.2766 53.8242 72.9938 54.125 72.7041C54.4132 72.403 54.7028 72.0862 55.002 71.7627C55.2911 71.4308 55.5771 71.0825 55.876 70.7295C56.1653 70.3697 56.4406 69.985 56.7324 69.6006C57.0098 69.2058 57.2793 68.7941 57.5586 68.377C57.6882 68.1616 57.8178 67.9445 57.9492 67.7256C58.0146 67.6156 58.0807 67.506 58.1465 67.3945C58.2129 67.284 58.2791 67.1724 58.3379 67.0566C58.4592 66.8268 58.5822 66.5946 58.7061 66.3613C58.767 66.2437 58.8285 66.1262 58.8896 66.0078C58.9501 65.8891 59.0035 65.7658 59.0605 65.6445C59.2865 65.1551 59.5191 64.6699 59.7207 64.125C59.8242 63.8577 59.9291 63.5895 60.0342 63.3193C60.117 63.0712 60.2 62.8215 60.2842 62.5713C60.3259 62.446 60.3692 62.3194 60.4111 62.1934L60.4424 62.0996L60.4844 61.9482L60.5439 61.7422C60.6181 61.4655 60.7039 61.1887 60.7695 60.9072C60.8367 60.6261 60.9095 60.3433 60.9727 60.0586C61.0303 59.7733 61.0894 59.4856 61.1484 59.1982C61.5819 56.8879 61.7437 54.4793 61.7266 52.085C61.7117 49.6877 61.532 47.3008 61.334 44.9648C61.1328 42.6285 60.9126 40.3386 60.8027 38.1191C60.7911 37.8426 60.7785 37.5665 60.7666 37.291C60.7584 37.0165 60.7497 36.7421 60.7412 36.4688C60.7365 36.1966 60.7319 35.9248 60.7275 35.6543C60.7279 35.3847 60.7288 35.1157 60.7295 34.8477C60.7343 34.5889 60.7378 34.3304 60.7422 34.0732C60.7425 34.0112 60.7455 33.942 60.749 33.8711L60.7588 33.6611C60.7652 33.5214 60.7711 33.3814 60.7773 33.2422L60.7822 33.1377L60.7832 33.1123C60.7827 33.1121 60.7859 33.0695 60.7822 33.1123L60.7861 33.0635L60.8008 32.8652C60.8099 32.7335 60.8191 32.602 60.8281 32.4707C60.8463 32.2078 60.8642 31.9456 60.8818 31.6846C61.0553 29.6006 61.366 27.5973 61.7939 25.7256C62.2213 23.8532 62.7677 22.1139 63.3799 20.543C63.4549 20.3454 63.5297 20.1502 63.6035 19.957C63.6868 19.7681 63.7692 19.5812 63.8506 19.3965C63.9328 19.2116 64.0135 19.0284 64.0938 18.8477C64.1329 18.7566 64.1731 18.6661 64.2119 18.5762C64.2536 18.4877 64.2978 18.4012 64.3398 18.3145C64.512 17.9675 64.6796 17.6293 64.8428 17.3008C64.9225 17.1343 65.0194 16.9827 65.1055 16.8262C65.1923 16.67 65.2774 16.5159 65.3613 16.3643C65.4462 16.2121 65.5294 16.0622 65.6113 15.915C65.6961 15.7696 65.788 15.6321 65.874 15.4941C66.0494 15.2206 66.2157 14.9533 66.375 14.6943C66.452 14.5625 66.5423 14.4456 66.625 14.3262C66.7091 14.2075 66.7918 14.0911 66.8721 13.9775C67.0341 13.751 67.1842 13.5292 67.3301 13.3203C67.4823 13.121 67.6315 12.9362 67.7705 12.7588C67.9093 12.5792 68.039 12.4104 68.1602 12.2539C68.2219 12.1758 68.2784 12.0976 68.3389 12.0273C68.4 11.9577 68.4593 11.891 68.5156 11.8271C68.6277 11.6984 68.7293 11.5813 68.8203 11.4766C69.0029 11.2679 69.1386 11.1032 69.2324 10.9941C69.3241 10.8852 69.3714 10.8279 69.3721 10.8271C69.3685 10.8293 69.3052 10.8678 69.1865 10.9404Z" fill="url(#paint0_linear_44_2)"/>
</g>
<defs>
<linearGradient id="paint0_linear_44_2" x1="-2.5" y1="99.5" x2="100" y2="2.10619e-06" gradientUnits="userSpaceOnUse">
<stop stop-color="#7033ff"/>
<stop offset="1" stop-color="#8c5cff"/>
</linearGradient>
<clipPath id="clip0_44_2">
<rect width="100" height="100" rx="24" fill="white"/>
</clipPath>
</defs>
</svg>
