<svg width="100" height="100" viewBox="0 0 100 100" fill="none" xmlns="http://www.w3.org/2000/svg">
<g clip-path="url(#clip0_44_2)">
<path d="M100 100H22.1221C22.2866 99.9268 22.5118 99.8282 22.791 99.6982C22.9538 99.6233 23.1359 99.5383 23.3369 99.4463C23.5314 99.3431 23.7439 99.2304 23.9736 99.1094C24.2041 98.9854 24.4514 98.853 24.7158 98.7119C24.9798 98.5686 25.2444 98.3948 25.5342 98.2217C25.8202 98.0433 26.1315 97.8662 26.4404 97.6572C26.7472 97.4445 27.0692 97.2223 27.4053 96.9902C27.7472 96.7639 28.0796 96.4995 28.4277 96.2266C28.7749 95.9533 29.1458 95.678 29.499 95.3623C29.8583 95.0514 30.2368 94.735 30.6045 94.3887C30.9699 94.0353 31.3453 93.6727 31.7314 93.3008C32.1017 92.914 32.4732 92.5063 32.8574 92.0908C33.2288 91.6645 33.5966 91.2171 33.9805 90.7637C34.3519 90.3018 34.7054 89.809 35.0801 89.3154C35.4363 88.8085 35.7819 88.2798 36.1406 87.7441C36.3071 87.4676 36.4738 87.1884 36.6426 86.9072C36.7265 86.7661 36.81 86.6245 36.8945 86.4814C36.9798 86.3395 37.0661 86.1965 37.1416 86.0479C37.2972 85.7528 37.4544 85.4547 37.6133 85.1553C37.6915 85.0042 37.7711 84.8532 37.8496 84.7012C37.9271 84.5489 37.9962 84.3909 38.0693 84.2354C38.3594 83.6069 38.6581 82.9839 38.917 82.2842C39.0499 81.941 39.1844 81.5969 39.3193 81.25C39.4258 80.9311 39.5324 80.6096 39.6406 80.2881C39.6942 80.1273 39.7489 79.9655 39.8027 79.8037L39.8438 79.6826L39.8984 79.4893L39.9746 79.2246C40.0699 78.8691 40.1794 78.5129 40.2637 78.1514C40.3499 77.7904 40.4433 77.428 40.5244 77.0625C40.5984 76.6962 40.6742 76.327 40.75 75.958C41.3067 72.9911 41.5142 69.898 41.4922 66.8232C41.4731 63.7451 41.2425 60.6802 40.9883 57.6807C40.73 54.6809 40.4468 51.7412 40.3057 48.8916C40.2907 48.5363 40.2751 48.1811 40.2598 47.8271C40.2493 47.4746 40.2385 47.1224 40.2275 46.7715C40.2215 46.422 40.2145 46.073 40.209 45.7256C40.2094 45.3795 40.211 45.0345 40.2119 44.6904C40.218 44.3582 40.2229 44.0265 40.2285 43.6963C40.2289 43.6166 40.2328 43.5277 40.2373 43.4365L40.25 43.167C40.2582 42.9875 40.2664 42.8078 40.2744 42.6289L40.2793 42.4951L40.2812 42.4609C40.2811 42.4556 40.2847 42.4096 40.2803 42.4619L40.2842 42.3984L40.3027 42.1445C40.3145 41.9754 40.3263 41.8064 40.3379 41.6377C40.3612 41.3002 40.3846 40.9639 40.4072 40.6289C40.6299 37.9529 41.0296 35.38 41.5791 32.9766C42.1278 30.5724 42.8301 28.3394 43.6162 26.3223C43.7125 26.0686 43.8075 25.8174 43.9023 25.5693C44.0093 25.3268 44.1152 25.0868 44.2197 24.8496C44.3253 24.6121 44.4291 24.3766 44.5322 24.1445C44.5824 24.0277 44.6338 23.9113 44.6836 23.7959C44.7371 23.6824 44.7937 23.5722 44.8477 23.4609C45.0688 23.0154 45.2836 22.5811 45.4932 22.1592C45.5955 21.9455 45.7205 21.7508 45.8311 21.5498C45.9426 21.3491 46.0523 21.1508 46.1602 20.9561C46.2692 20.7606 46.3753 20.5679 46.4805 20.3789C46.5892 20.1922 46.708 20.0169 46.8184 19.8398C47.0437 19.4885 47.2563 19.1442 47.4609 18.8115C47.5598 18.6422 47.6761 18.4923 47.7822 18.3389C47.8901 18.1866 47.9956 18.0373 48.0986 17.8916C48.3067 17.6008 48.5002 17.316 48.6875 17.0479C48.883 16.7919 49.0744 16.554 49.2529 16.3262C49.4312 16.0957 49.5983 15.8796 49.7539 15.6787C49.8333 15.5784 49.9057 15.4779 49.9834 15.3877C50.0619 15.2982 50.1377 15.2119 50.21 15.1299C50.3538 14.9646 50.4838 14.8142 50.6006 14.6797C50.8349 14.4118 51.0094 14.2006 51.1299 14.0605C51.2484 13.9197 51.3105 13.8467 51.3105 13.8467C51.3105 13.8467 51.229 13.8962 51.0723 13.9922C50.9152 14.0887 50.6777 14.2287 50.377 14.4189C50.2259 14.5133 50.0572 14.6184 49.8721 14.7344C49.7797 14.7932 49.6831 14.855 49.582 14.9189C49.4826 14.9846 49.3837 15.062 49.2773 15.1377C48.8569 15.4455 48.3701 15.8053 47.8301 16.2227C47.5751 16.4419 47.3019 16.671 47.0225 16.9189C46.8813 17.0423 46.7368 17.1687 46.5889 17.2979C46.4427 17.4284 46.2866 17.5564 46.1455 17.7031C45.8546 17.9896 45.5508 18.2903 45.2412 18.6074C45.0864 18.7662 44.922 18.924 44.7666 19.0928C44.6156 19.2651 44.4614 19.4403 44.3047 19.6182C43.0203 21.0275 41.7505 22.7804 40.5361 24.8057C39.3254 26.8329 38.2115 29.158 37.2939 31.7129C36.3755 34.2671 35.652 37.0495 35.1758 39.9707C35.1229 40.3365 35.0702 40.7038 35.0166 41.0723C34.9892 41.2569 34.9622 41.4425 34.9355 41.6279L34.8955 41.9062L34.8867 41.9756L34.876 42.0771L34.8613 42.21C34.842 42.388 34.8223 42.5667 34.8018 42.7451L34.7734 43.0137C34.7634 43.1019 34.7541 43.1927 34.7461 43.293C34.7141 43.6825 34.682 44.0736 34.6504 44.4658C34.5468 45.9923 34.5142 47.5293 34.5332 49.0645C34.5699 52.1354 34.8068 55.1933 35.0596 58.1865C35.3173 61.1806 35.5864 64.116 35.707 66.96C35.8289 69.8031 35.8052 72.5549 35.5225 75.1689C35.4813 75.4948 35.4417 75.8196 35.4014 76.1426C35.36 76.4651 35.3064 76.7823 35.2607 77.1016C35.216 77.4212 35.1475 77.732 35.0928 78.0459L35.0508 78.2812L35.04 78.3389L35.0361 78.3682C35.038 78.362 35.0416 78.3479 35.0449 78.3359L35.0166 78.4619C34.9794 78.6281 34.9412 78.794 34.9033 78.959C34.8282 79.2903 34.7538 79.6201 34.6787 79.9473C34.6001 80.2369 34.5219 80.5251 34.4434 80.8105C34.306 81.378 34.0985 81.9635 33.917 82.5391C33.8701 82.6828 33.8276 82.828 33.7773 82.9688C33.7238 83.1097 33.6712 83.2504 33.6191 83.3896C33.5143 83.6712 33.4111 83.949 33.3076 84.2256C33.094 84.776 32.8491 85.3059 32.6328 85.8389C32.3841 86.3598 32.1407 86.8709 31.9004 87.3721C31.6378 87.8663 31.3798 88.3502 31.1279 88.8242C30.0785 90.7081 28.9432 92.3601 27.8438 93.7646C27.5814 94.1289 27.2974 94.454 27.0312 94.7773C26.7615 95.0986 26.5113 95.4191 26.2471 95.7041C25.9872 95.9965 25.7376 96.2756 25.498 96.543C25.2546 96.8052 25.0141 97.0495 24.7891 97.2861C24.5609 97.5189 24.3523 97.7519 24.1406 97.9502C23.93 98.1529 23.7334 98.3439 23.5508 98.5205C23.3665 98.6989 23.1951 98.8643 23.0391 99.0156C22.8776 99.1601 22.7309 99.2931 22.5996 99.4111C22.3053 99.6789 22.0879 99.8771 21.9531 100H0V0H100V100ZM63.1895 6.99609C63.0324 7.09262 62.7956 7.23179 62.4951 7.42188C62.3439 7.51632 62.1747 7.62213 61.9893 7.73828C61.897 7.79703 61.8012 7.859 61.7002 7.92285C61.6008 7.98844 61.5018 8.0659 61.3955 8.1416C60.9751 8.4494 60.4883 8.80923 59.9482 9.22656C59.6932 9.4458 59.4201 9.67492 59.1406 9.92285C58.9995 10.0462 58.855 10.1726 58.707 10.3018C58.5609 10.4323 58.4047 10.5603 58.2637 10.707C57.9728 10.9935 57.669 11.2942 57.3594 11.6113C57.2045 11.7701 57.0402 11.9278 56.8848 12.0967C56.7337 12.269 56.5796 12.4443 56.4229 12.6221C55.1384 14.0315 53.8677 15.7842 52.6533 17.8096C51.4426 19.8368 50.3297 22.162 49.4121 24.7168C48.4937 27.2708 47.7702 30.0526 47.2939 32.9736C47.241 33.3396 47.1875 33.7074 47.1338 34.0762C47.1064 34.2608 47.0803 34.4464 47.0537 34.6318L47.0137 34.9102L47.0039 34.9795L46.9941 35.0811L46.9795 35.2139C46.9601 35.3919 46.9405 35.5705 46.9199 35.749L46.8916 36.0176C46.8816 36.1057 46.8713 36.1966 46.8633 36.2969C46.8313 36.6864 46.8002 37.0776 46.7686 37.4697C46.665 38.9961 46.6324 40.5332 46.6514 42.0684C46.6881 45.1392 46.924 48.1973 47.1768 51.1904C47.4345 54.1845 47.7046 57.1199 47.8252 59.9639C47.947 62.807 47.9234 65.5588 47.6406 68.1729C47.5995 68.4987 47.5599 68.8235 47.5195 69.1465C47.4782 69.469 47.4246 69.7862 47.3789 70.1055C47.3342 70.425 47.2656 70.7351 47.2109 71.0488L47.1689 71.2842L47.1582 71.3428L47.1533 71.3721C47.1508 71.3834 47.1578 71.3589 47.1631 71.3398L47.1348 71.4658C47.0976 71.632 47.0594 71.7979 47.0215 71.9629C46.9463 72.2943 46.872 72.6239 46.7969 72.9512C46.7183 73.2406 46.6401 73.5282 46.5615 73.8135C46.4241 74.3811 46.2167 74.9672 46.0352 75.543C45.9882 75.6867 45.9458 75.8319 45.8955 75.9727C45.842 76.1136 45.7883 76.2543 45.7363 76.3936C45.6316 76.6749 45.5292 76.953 45.4258 77.2295C45.2122 77.7798 44.9672 78.309 44.751 78.8418C44.5022 79.3628 44.2579 79.8737 44.0176 80.375C43.755 80.8693 43.498 81.3541 43.2461 81.8281C42.1966 83.7121 41.0604 85.364 39.9609 86.7686C39.6986 87.1327 39.4155 87.458 39.1494 87.7812C38.8797 88.1025 38.6295 88.423 38.3652 88.708C38.1054 89.0004 37.8558 89.2795 37.6162 89.5469C37.3728 89.8091 37.1322 90.0534 36.9072 90.29C36.679 90.5228 36.4704 90.7558 36.2588 90.9541C36.0482 91.1568 35.8516 91.3478 35.6689 91.5244C35.4848 91.7027 35.3131 91.8673 35.1572 92.0186C34.9959 92.163 34.849 92.2961 34.7178 92.4141C34.1992 92.886 33.9185 93.1419 33.9092 93.1504C33.9139 93.1483 34.0008 93.1097 34.1641 93.0371C34.3323 92.9615 34.5843 92.8533 34.9092 92.7021C35.072 92.6272 35.2541 92.5422 35.4551 92.4502C35.6494 92.3471 35.8613 92.2342 36.0908 92.1133C36.3214 91.9893 36.5695 91.857 36.834 91.7158C37.098 91.5725 37.3626 91.3987 37.6523 91.2256C37.9384 91.0472 38.2497 90.8701 38.5586 90.6611C38.8653 90.4485 39.1874 90.2262 39.5234 89.9941C39.8653 89.7678 40.1978 89.5025 40.5459 89.2295C40.8929 88.9564 41.2631 88.6808 41.6162 88.3652C41.9756 88.0543 42.3548 87.7381 42.7227 87.3916C43.088 87.0383 43.4635 86.6765 43.8496 86.3047C44.2198 85.9179 44.5914 85.5103 44.9756 85.0947C45.3469 84.6685 45.7139 84.2209 46.0977 83.7676C46.4691 83.3056 46.8235 82.813 47.1982 82.3193C47.5545 81.8124 47.8991 81.2828 48.2578 80.7471C48.4242 80.4706 48.592 80.1923 48.7607 79.9111C48.8447 79.77 48.9282 79.6284 49.0127 79.4854C49.0979 79.3434 49.1833 79.2005 49.2588 79.0518C49.4145 78.7566 49.5725 78.4587 49.7314 78.1592C49.8097 78.0081 49.8893 77.8571 49.9678 77.7051C50.0453 77.5528 50.1134 77.3948 50.1865 77.2393C50.4767 76.6108 50.7763 75.9879 51.0352 75.2881C51.168 74.9449 51.3026 74.6008 51.4375 74.2539C51.5439 73.935 51.6506 73.6136 51.7588 73.292C51.8124 73.1311 51.867 72.9694 51.9209 72.8076L51.9619 72.6865L52.0156 72.4932L52.0918 72.2285C52.187 71.873 52.2976 71.5168 52.3818 71.1553C52.4681 70.7943 52.5605 70.4319 52.6416 70.0664C52.7156 69.7001 52.7914 69.3309 52.8672 68.9619C53.4239 65.995 53.6314 62.9019 53.6094 59.8271C53.5903 56.749 53.3607 53.6841 53.1064 50.6846C52.8481 47.6846 52.5649 44.7443 52.4238 41.8945C52.4089 41.5394 52.3923 41.1848 52.377 40.8311C52.3665 40.4785 52.3556 40.1263 52.3447 39.7754C52.3387 39.4258 52.3327 39.0769 52.3271 38.7295C52.3276 38.3834 52.3292 38.0384 52.3301 37.6943C52.3362 37.3621 52.3411 37.0303 52.3467 36.7002C52.3471 36.6206 52.351 36.5315 52.3555 36.4404L52.3672 36.1699C52.3754 35.9906 52.3836 35.8115 52.3916 35.6328L52.3975 35.498L52.3994 35.4648C52.3984 35.4688 52.4033 35.4085 52.3984 35.4658L52.4023 35.4023L52.4209 35.1484C52.4326 34.9793 52.4444 34.8102 52.4561 34.6416C52.4793 34.304 52.5028 33.967 52.5254 33.6318C52.7481 30.956 53.1477 28.3838 53.6973 25.9805C54.2459 23.5764 54.9474 21.3432 55.7334 19.3262C55.8297 19.0725 55.9257 18.8214 56.0205 18.5732C56.1274 18.3308 56.2325 18.0906 56.3369 17.8535C56.4425 17.616 56.5473 17.3806 56.6504 17.1484C56.7006 17.0316 56.751 16.9153 56.8008 16.7998C56.8543 16.6862 56.9118 16.5763 56.9658 16.4648C57.187 16.0193 57.4017 15.585 57.6113 15.1631C57.7138 14.9492 57.8387 14.7538 57.9492 14.5527C58.0607 14.3522 58.1706 14.1546 58.2783 13.96C58.3873 13.7645 58.4934 13.5718 58.5986 13.3828C58.7074 13.1961 58.8261 13.0199 58.9365 12.8428C59.1618 12.4916 59.3746 12.148 59.5791 11.8154C59.6779 11.6463 59.7933 11.496 59.8994 11.3428C60.0074 11.1904 60.1137 11.0404 60.2168 10.8945C60.4248 10.6037 60.6184 10.319 60.8057 10.0508C61.0011 9.795 61.1926 9.55782 61.3711 9.33008C61.5493 9.09958 61.7165 8.88351 61.8721 8.68262C61.9514 8.58242 62.023 8.48177 62.1006 8.3916C62.1792 8.30204 62.2548 8.21588 62.3271 8.13379C62.4712 7.96835 62.6019 7.81821 62.7188 7.68359C62.9531 7.41571 63.1276 7.20452 63.248 7.06445C63.3619 6.92923 63.423 6.85619 63.4277 6.85059C63.4212 6.85454 63.3398 6.90404 63.1895 6.99609ZM74.4541 0.492188C74.297 0.58874 74.0603 0.72879 73.7598 0.918945C73.6086 1.01336 73.4392 1.11828 73.2539 1.23438C73.1616 1.29312 73.0658 1.35509 72.9648 1.41895C72.8654 1.48453 72.7665 1.56199 72.6602 1.6377C72.2397 1.94549 71.7529 2.30532 71.2129 2.72266C70.9579 2.94189 70.6848 3.17101 70.4053 3.41895C70.2641 3.54233 70.1196 3.66873 69.9717 3.79785C69.8255 3.92838 69.6694 4.05635 69.5283 4.20312C69.2375 4.48959 68.9336 4.79028 68.624 5.10742C68.4692 5.26625 68.3048 5.42393 68.1494 5.59277C67.9984 5.76509 67.8442 5.94034 67.6875 6.11816C66.403 7.52758 65.1324 9.28029 63.918 11.3057C62.7073 13.3329 61.5943 15.658 60.6768 18.2129C59.7583 20.7671 59.0349 23.5495 58.5586 26.4707C58.5057 26.8365 58.4521 27.2037 58.3984 27.5723C58.371 27.7569 58.345 27.9425 58.3184 28.1279L58.2783 28.4062L58.2695 28.4756L58.2588 28.5771L58.2441 28.71C58.2248 28.888 58.2051 29.0667 58.1846 29.2451L58.1562 29.5137C58.1463 29.6019 58.1359 29.6927 58.1279 29.793C58.096 30.1825 58.0648 30.5737 58.0332 30.9658C57.9296 32.4923 57.8971 34.0293 57.916 35.5645C57.9527 38.6354 58.1886 41.6933 58.4414 44.6865C58.6992 47.6806 58.9692 50.616 59.0898 53.46C59.2117 56.3031 59.188 59.0549 58.9053 61.6689C58.8641 61.9948 58.8245 62.3196 58.7842 62.6426C58.7429 62.9651 58.6892 63.2823 58.6436 63.6016C58.5988 63.9212 58.5303 64.232 58.4756 64.5459L58.4336 64.7812L58.4229 64.8389L58.418 64.8682C58.4154 64.8799 58.4225 64.8551 58.4277 64.8359L58.3994 64.9619C58.3622 65.1281 58.324 65.294 58.2861 65.459C58.211 65.7903 58.1366 66.1201 58.0615 66.4473C57.9829 66.7369 57.9047 67.0251 57.8262 67.3105C57.6888 67.878 57.4813 68.4635 57.2998 69.0391C57.2529 69.1828 57.2104 69.3281 57.1602 69.4688C57.1066 69.6097 57.054 69.7504 57.002 69.8896C56.8971 70.1712 56.7939 70.449 56.6904 70.7256C56.4768 71.276 56.2319 71.8059 56.0156 72.3389C55.7669 72.8598 55.5225 73.3709 55.2822 73.8721C55.0197 74.3662 54.7626 74.8503 54.5107 75.3242C53.4612 77.2082 52.3251 78.86 51.2256 80.2646C50.9632 80.6288 50.6802 80.954 50.4141 81.2773C50.1443 81.5986 49.8941 81.9191 49.6299 82.2041C49.37 82.4965 49.1204 82.7756 48.8809 83.043C48.6375 83.3051 48.3969 83.5495 48.1719 83.7861C47.9437 84.0189 47.7351 84.2519 47.5234 84.4502C47.3128 84.6529 47.1163 84.8439 46.9336 85.0205C46.7494 85.1989 46.5779 85.3643 46.4219 85.5156C46.2604 85.6602 46.1137 85.7931 45.9824 85.9111C45.455 86.3911 45.1738 86.6475 45.1738 86.6475C45.1738 86.6475 45.2609 86.6087 45.4287 86.5342C45.597 86.4586 45.8489 86.3494 46.1738 86.1982C46.3366 86.1233 46.5188 86.0383 46.7197 85.9463C46.9141 85.8432 47.126 85.7303 47.3555 85.6094C47.586 85.4854 47.8341 85.353 48.0986 85.2119C48.3626 85.0686 48.6272 84.8948 48.917 84.7217C49.203 84.5433 49.5143 84.3662 49.8232 84.1572C50.1299 83.9446 50.4521 83.7223 50.7881 83.4902C51.13 83.2639 51.4625 82.9995 51.8105 82.7266C52.1577 82.4533 52.5286 82.178 52.8818 81.8623C53.2411 81.5514 53.6196 81.2351 53.9873 80.8887C54.3528 80.5353 54.7281 80.1727 55.1143 79.8008C55.4845 79.414 55.856 79.0063 56.2402 78.5908C56.6116 78.1645 56.9794 77.717 57.3633 77.2637C57.7347 76.8018 58.0883 76.309 58.4629 75.8154C58.819 75.3086 59.1639 74.7797 59.5225 74.2441C59.6889 73.9676 59.8566 73.6884 60.0254 73.4072C60.1093 73.2661 60.1929 73.1245 60.2773 72.9814C60.3626 72.8396 60.4489 72.6965 60.5244 72.5479C60.68 72.2528 60.8372 71.9547 60.9961 71.6553C61.0743 71.5042 61.1539 71.3532 61.2324 71.2012C61.3099 71.0489 61.378 70.8909 61.4512 70.7354C61.7413 70.1068 62.0409 69.484 62.2998 68.7842C62.4327 68.4409 62.5672 68.0969 62.7021 67.75C62.8086 67.4311 62.9152 67.1096 63.0234 66.7881C63.077 66.6273 63.1317 66.4655 63.1855 66.3037L63.2266 66.1826L63.2803 65.9893L63.3564 65.7246C63.4517 65.3691 63.5622 65.0129 63.6465 64.6514C63.7327 64.2904 63.8261 63.928 63.9072 63.5625C63.9812 63.1962 64.057 62.827 64.1328 62.458C64.6895 59.4911 64.897 56.398 64.875 53.3232C64.856 50.2451 64.6253 47.1802 64.3711 44.1807C64.1128 41.1809 63.8296 38.2412 63.6885 35.3916C63.6735 35.0362 63.6569 34.6811 63.6416 34.3271C63.6311 33.9746 63.6213 33.6224 63.6104 33.2715C63.6043 32.922 63.5974 32.573 63.5918 32.2256C63.5922 31.8795 63.5938 31.5345 63.5947 31.1904C63.6009 30.8582 63.6057 30.5265 63.6113 30.1963C63.6117 30.1166 63.6156 30.0277 63.6201 29.9365L63.6328 29.667C63.641 29.4875 63.6492 29.3078 63.6572 29.1289L63.6621 28.9951L63.6641 28.9609C63.6639 28.9556 63.6675 28.9096 63.6631 28.9619L63.667 28.8984L63.6855 28.6445C63.6973 28.4754 63.7091 28.3064 63.7207 28.1377C63.744 27.8002 63.7674 27.4639 63.79 27.1289C64.0127 24.4529 64.4124 21.88 64.9619 19.4766C65.5106 17.0724 66.213 14.8394 66.999 12.8223C67.0953 12.5686 67.1904 12.3174 67.2852 12.0693C67.3921 11.8268 67.498 11.5868 67.6025 11.3496C67.7081 11.1121 67.8119 10.8766 67.915 10.6445C67.9652 10.5277 68.0166 10.4113 68.0664 10.2959C68.1199 10.1824 68.1765 10.0722 68.2305 9.96094C68.4516 9.51536 68.6664 9.08111 68.876 8.65918C68.9784 8.44543 69.1034 8.25077 69.2139 8.0498C69.3254 7.8491 69.4352 7.65083 69.543 7.45605C69.652 7.26062 69.7581 7.06792 69.8633 6.87891C69.9721 6.69222 70.0908 6.51696 70.2012 6.33984C70.4265 5.98848 70.6392 5.6442 70.8438 5.31152C70.9426 5.14223 71.0589 4.99227 71.165 4.83887C71.2729 4.68659 71.3784 4.53733 71.4814 4.3916C71.6895 4.10074 71.883 3.81605 72.0703 3.54785C72.2659 3.29188 72.4572 3.05406 72.6357 2.82617C72.814 2.59566 72.9811 2.37962 73.1367 2.17871C73.2161 2.07843 73.2885 1.97792 73.3662 1.8877C73.4447 1.79824 73.5195 1.71189 73.5918 1.62988C73.7358 1.46446 73.8665 1.31429 73.9834 1.17969C74.2177 0.911792 74.3923 0.700606 74.5127 0.560547C74.6313 0.419665 74.6934 0.34668 74.6934 0.34668C74.6934 0.34668 74.611 0.396117 74.4541 0.492188Z" fill="url(#paint0_linear_44_2)"/>
</g>
<defs>
<linearGradient id="paint0_linear_44_2" x1="-2.5" y1="99.5" x2="100" y2="2.10619e-06" gradientUnits="userSpaceOnUse">
<stop stop-color="#3A5BA0"/>
<stop offset="1" stop-color="#1A2238"/>
</linearGradient>
<clipPath id="clip0_44_2">
<rect width="100" height="100" rx="24" fill="white"/>
</clipPath>
</defs>
</svg>
